<svg width="24" height="24" viewBox="0 0 24 24" fill="none" xmlns="http://www.w3.org/2000/svg">
<path d="M24 12C24 14.5584 23.1823 17.0499 21.6663 19.1107C20.1503 21.1716 18.0153 22.694 15.5729 23.4558C13.1305 24.2175 10.5086 24.1787 8.08985 23.3451C5.67107 22.5114 3.58203 20.9266 2.12763 18.8218C0.673225 16.717 -0.0704123 14.2024 0.00524866 11.6451C0.0809096 9.08783 0.971908 6.62165 2.54821 4.60652C4.12451 2.59138 6.30359 1.13279 8.76742 0.443597C11.2313 -0.245592 13.8509 -0.129292 16.2439 0.775522L15.392 3.0288C13.4793 2.30562 11.3856 2.21267 9.41635 2.7635C7.44712 3.31434 5.70548 4.48013 4.44562 6.09073C3.18576 7.70133 2.47362 9.67243 2.41315 11.7164C2.35268 13.7603 2.94703 15.77 4.10947 17.4523C5.27191 19.1346 6.94158 20.4013 8.8748 21.0676C10.808 21.7339 12.9036 21.7649 14.8557 21.156C16.8078 20.5472 18.5142 19.3304 19.7258 17.6833C20.9375 16.0361 21.591 14.0448 21.591 12H24Z" fill="#4D4D4D"/>
</svg>
